<svg width="102" height="24" viewBox="0 0 102 24" fill="none" xmlns="http://www.w3.org/2000/svg">
<path d="M12 5.9C13.16 5.9 14.1 6.84 14.1 8C14.1 9.16 13.16 10.1 12 10.1C10.84 10.1 9.9 9.16 9.9 8C9.9 6.84 10.84 5.9 12 5.9ZM12 14.9C14.97 14.9 18.1 16.36 18.1 17V18.1H5.9V17C5.9 16.36 9.03 14.9 12 14.9ZM12 4C9.79 4 8 5.79 8 8C8 10.21 9.79 12 12 12C14.21 12 16 10.21 16 8C16 5.79 14.21 4 12 4ZM12 13C9.33 13 4 14.34 4 17V20H20V17C20 14.34 14.67 13 12 13Z" fill="#2A2A2A"/>
<path d="M32.88 17.208C34.736 17.208 36.016 15.976 36.016 13.832V5.816H34.208V13.512C34.208 14.888 33.648 15.528 32.656 15.528C32.032 15.528 31.472 15.32 30.928 14.952L30.16 16.424C31.088 16.984 31.984 17.208 32.88 17.208ZM42.021 17.16C44.485 17.144 46.213 15.56 46.213 13.032C46.213 10.536 44.485 8.936 42.021 8.936C39.557 8.936 37.813 10.536 37.813 13.032C37.813 15.56 39.557 17.144 42.021 17.16ZM42.021 15.752C40.549 15.752 39.557 14.648 39.557 13.032C39.557 11.448 40.549 10.328 42.021 10.328C43.477 10.328 44.485 11.448 44.485 13.032C44.485 14.648 43.477 15.752 42.021 15.752ZM52.3299 8.936C51.1779 8.936 50.2659 9.4 49.7219 10.152V5H47.9779V17H49.7219V12.568C49.7379 10.968 50.6659 10.328 51.7059 10.328C52.7619 10.328 53.4499 10.904 53.4499 12.184V17H55.1939V11.928C55.1939 9.976 54.1699 8.936 52.3299 8.936ZM61.4995 8.936C60.4275 8.936 59.5475 9.352 59.0035 10.072V9.096H57.2595V17H59.0035V12.248C59.1315 10.904 59.9635 10.328 60.9875 10.328C62.0115 10.328 62.7155 10.904 62.7155 12.088V17H64.4595V11.752C64.4595 9.976 63.4355 8.936 61.4995 8.936ZM73.8974 17C75.8014 17 77.1134 16.632 78.0574 15.912C79.3214 14.984 79.9454 13.432 79.9454 11.4C79.9454 9.384 79.3214 7.832 78.0574 6.888C77.1134 6.184 75.8014 5.816 73.8974 5.816H70.7774V17H73.8974ZM72.5854 7.416H73.8814C75.1774 7.416 76.1214 7.672 76.7934 8.184C77.6894 8.84 78.1374 9.928 78.1374 11.4C78.1374 12.872 77.6894 13.976 76.7934 14.632C76.1214 15.144 75.1774 15.4 73.8814 15.4H72.5854V7.416ZM85.5679 17.16C88.0319 17.144 89.7599 15.56 89.7599 13.032C89.7599 10.536 88.0319 8.936 85.5679 8.936C83.1039 8.936 81.3599 10.536 81.3599 13.032C81.3599 15.56 83.1039 17.144 85.5679 17.16ZM85.5679 15.752C84.0959 15.752 83.1039 14.648 83.1039 13.032C83.1039 11.448 84.0959 10.328 85.5679 10.328C87.0239 10.328 88.0319 11.448 88.0319 13.032C88.0319 14.648 87.0239 15.752 85.5679 15.752ZM99.1888 13C99.1888 10.344 97.5088 8.936 95.2528 8.936C92.8528 8.936 91.1728 10.52 91.1728 13.048C91.1728 15.56 92.8048 17.16 95.3008 17.16C97.0448 17.16 98.4368 16.264 98.9648 14.728L97.3648 14.488C96.9968 15.32 96.2608 15.784 95.3008 15.784C93.9888 15.784 92.9808 14.904 92.8848 13.4H99.1728L99.1888 13ZM95.2688 10.312C96.3888 10.312 97.2528 10.92 97.4288 12.072H92.9648C93.2048 10.872 94.0528 10.312 95.2688 10.312Z" fill="#2A2A2A"/>
</svg>
