<svg width="114" height="24" viewBox="0 0 114 24" fill="none" xmlns="http://www.w3.org/2000/svg">
<path d="M11.9 5C9.191 5 7 7.191 7 9.9C7 13.575 11.9 19 11.9 19C11.9 19 16.8 13.575 16.8 9.9C16.8 7.191 14.609 5 11.9 5ZM8.4 9.9C8.4 7.968 9.968 6.4 11.9 6.4C13.832 6.4 15.4 7.968 15.4 9.9C15.4 11.916 13.384 14.933 11.9 16.816C10.444 14.947 8.4 11.895 8.4 9.9Z" fill="#999999"/>
<path d="M11.9004 11.6499C12.8669 11.6499 13.6504 10.8664 13.6504 9.8999C13.6504 8.9334 12.8669 8.1499 11.9004 8.1499C10.9339 8.1499 10.1504 8.9334 10.1504 9.8999C10.1504 10.8664 10.9339 11.6499 11.9004 11.6499Z" fill="#999999"/>
<path d="M29.474 16.182C31.182 16.182 32.33 15.384 32.932 14.18V16H34.192V10.792H29.614V12.08H32.638C32.33 13.774 31.154 14.712 29.558 14.712C27.5 14.712 26.184 13.256 26.184 11.1C26.184 8.944 27.57 7.488 29.558 7.488C30.846 7.488 31.896 8.104 32.456 9.14L33.842 8.398C33.016 6.928 31.476 6.032 29.558 6.032C26.646 6.032 24.602 8.09 24.602 11.1C24.602 14.124 26.604 16.182 29.474 16.182ZM40.6068 12.948C40.5928 14.32 39.8228 14.908 38.8568 14.908C37.9608 14.908 37.3448 14.418 37.3448 13.382V9.084H35.8188V13.676C35.8188 15.23 36.7148 16.14 38.4088 16.14C39.3608 16.14 40.1308 15.762 40.6068 15.132V16H42.1328V9.084H40.6068V12.948ZM45.5223 9.084H43.9963V16H45.5223V12.78C45.5223 11.03 46.3203 10.358 48.0283 10.358V8.944C46.8523 8.944 45.9423 9.448 45.5223 10.232V9.084ZM53.9916 12.948C53.9776 14.32 53.2076 14.908 52.2416 14.908C51.3456 14.908 50.7296 14.418 50.7296 13.382V9.084H49.2036V13.676C49.2036 15.23 50.0996 16.14 51.7936 16.14C52.7456 16.14 53.5156 15.762 53.9916 15.132V16H55.5176V9.084H53.9916V12.948ZM62.617 10.162C62.197 9.434 61.357 8.944 60.279 8.944C58.487 8.944 57.059 10.316 57.059 12.402C57.059 14.502 58.487 15.902 60.265 15.902C61.329 15.902 62.211 15.412 62.617 14.698V16C62.617 17.414 61.959 18.31 60.573 18.31C59.551 18.31 58.865 17.778 58.459 16.812L57.185 17.344C57.661 18.646 58.767 19.5 60.629 19.5C62.785 19.5 64.143 18.366 64.143 15.888V9.084H62.617V10.162ZM60.615 14.656C59.411 14.656 58.529 13.718 58.529 12.402C58.529 11.1 59.411 10.162 60.615 10.162C61.847 10.162 62.715 11.1 62.715 12.402C62.715 13.718 61.833 14.656 60.615 14.656ZM67.534 9.084H66.008V16H67.534V12.78C67.534 11.03 68.332 10.358 70.04 10.358V8.944C68.864 8.944 67.954 9.448 67.534 10.232V9.084ZM77.3373 14.796C76.9733 14.796 76.8333 14.614 76.8333 14.138V11.478C76.8333 9.84 75.8253 8.944 73.9633 8.944C72.1993 8.944 71.1493 9.7 70.9113 11.128L72.4373 11.338C72.5353 10.484 73.0533 10.05 73.9353 10.05C74.7613 10.05 75.3073 10.456 75.3073 11.296C75.3073 11.632 75.0273 11.744 74.7333 11.8L73.4873 12.038C72.0033 12.318 70.8273 12.864 70.8273 14.278C70.8273 15.58 71.8073 16.14 72.9693 16.14C74.2013 16.14 75.1113 15.664 75.5873 14.866H75.6573V15.02C75.6573 15.706 76.1613 16 76.8753 16H77.5893V14.796H77.3373ZM73.3893 14.95C72.7313 14.95 72.3533 14.656 72.3533 14.138C72.3533 13.592 72.7733 13.27 73.5573 13.13L75.3913 12.71C75.3913 14.082 74.5653 14.95 73.3893 14.95ZM86.5221 8.944C85.5561 8.944 84.8001 9.378 84.3661 10.162C84.0581 9.392 83.2741 8.944 82.1961 8.944C81.3421 8.944 80.6421 9.294 80.2081 9.896V9.084H78.6821V16H80.2081V11.674C80.3061 10.61 80.9221 10.162 81.6781 10.162C82.4481 10.162 83.0081 10.638 83.0081 11.52V16H84.5341V11.996C84.5341 10.68 85.1921 10.162 86.0181 10.162C86.7881 10.162 87.3341 10.638 87.3341 11.52V16H88.8601V11.03C88.8601 9.728 87.9781 8.944 86.5221 8.944Z" fill="#999999"/>
<path d="M104.717 10L102.239 12.4723L99.7611 10L99 10.7611L102.239 14L105.478 10.7611L104.717 10Z" fill="#999999"/>
</svg>
