<svg width="141" height="24" viewBox="0 0 141 24" fill="none" xmlns="http://www.w3.org/2000/svg">
<path d="M36.048 8.008V10.008L38.704 7.848V17H40.448V5.816H38.752L36.048 8.008ZM48.0474 17.208C50.2714 17.208 51.9354 15.848 51.9354 13.8C51.9354 12.456 51.1994 11.432 50.0634 10.936C50.9114 10.456 51.4714 9.608 51.4714 8.568C51.4714 6.856 50.0154 5.608 48.0474 5.608C46.0474 5.608 44.5914 6.856 44.5914 8.568C44.5914 9.608 45.1514 10.456 46.0314 10.936C44.8794 11.432 44.1434 12.472 44.1434 13.8C44.1434 15.848 45.8074 17.208 48.0474 17.208ZM48.0474 10.424C47.0074 10.424 46.2074 9.672 46.2074 8.632C46.2074 7.624 47.0074 6.904 48.0474 6.904C49.0714 6.904 49.8874 7.624 49.8874 8.632C49.8874 9.656 49.0714 10.424 48.0474 10.424ZM48.0474 15.64C46.7994 15.64 45.8874 14.808 45.8874 13.608C45.8874 12.392 46.7834 11.608 48.0474 11.608C49.2794 11.608 50.1914 12.392 50.1914 13.608C50.1914 14.808 49.2794 15.64 48.0474 15.64ZM57.4068 17.208C59.9028 17.208 61.2948 15.272 61.2948 11.4C61.2948 7.496 59.9028 5.608 57.4068 5.608C54.8788 5.608 53.5028 7.496 53.5028 11.4C53.5028 15.288 54.8788 17.208 57.4068 17.208ZM57.4068 15.64C56.0308 15.64 55.2468 14.312 55.2468 11.4C55.2468 8.472 56.0148 7.176 57.4068 7.176C58.7668 7.176 59.5508 8.488 59.5508 11.4C59.5508 14.312 58.7668 15.64 57.4068 15.64ZM66.7661 17.208C69.2621 17.208 70.6541 15.272 70.6541 11.4C70.6541 7.496 69.2621 5.608 66.7661 5.608C64.2381 5.608 62.8621 7.496 62.8621 11.4C62.8621 15.288 64.2381 17.208 66.7661 17.208ZM66.7661 15.64C65.3901 15.64 64.6061 14.312 64.6061 11.4C64.6061 8.472 65.3741 7.176 66.7661 7.176C68.1261 7.176 68.9101 8.488 68.9101 11.4C68.9101 14.312 68.1261 15.64 66.7661 15.64ZM77.3575 13.704V12.376H71.7575V13.704H77.3575ZM82.3599 17.208C84.8559 17.208 86.2479 15.272 86.2479 11.4C86.2479 7.496 84.8559 5.608 82.3599 5.608C79.8319 5.608 78.4559 7.496 78.4559 11.4C78.4559 15.288 79.8319 17.208 82.3599 17.208ZM82.3599 15.64C80.9839 15.64 80.1999 14.312 80.1999 11.4C80.1999 8.472 80.9679 7.176 82.3599 7.176C83.7199 7.176 84.5039 8.488 84.5039 11.4C84.5039 14.312 83.7199 15.64 82.3599 15.64ZM91.7193 17.208C94.2153 17.208 95.6073 15.272 95.6073 11.4C95.6073 7.496 94.2153 5.608 91.7193 5.608C89.1913 5.608 87.8153 7.496 87.8153 11.4C87.8153 15.288 89.1913 17.208 91.7193 17.208ZM91.7193 15.64C90.3433 15.64 89.5593 14.312 89.5593 11.4C89.5593 8.472 90.3273 7.176 91.7193 7.176C93.0793 7.176 93.8633 8.488 93.8633 11.4C93.8633 14.312 93.0793 15.64 91.7193 15.64ZM101.079 17.208C103.575 17.208 104.967 15.272 104.967 11.4C104.967 7.496 103.575 5.608 101.079 5.608C98.5506 5.608 97.1746 7.496 97.1746 11.4C97.1746 15.288 98.5506 17.208 101.079 17.208ZM101.079 15.64C99.7026 15.64 98.9186 14.312 98.9186 11.4C98.9186 8.472 99.6866 7.176 101.079 7.176C102.439 7.176 103.223 8.488 103.223 11.4C103.223 14.312 102.439 15.64 101.079 15.64ZM111.67 13.704V12.376H106.07V13.704H111.67ZM116.672 17.208C119.168 17.208 120.56 15.272 120.56 11.4C120.56 7.496 119.168 5.608 116.672 5.608C114.144 5.608 112.768 7.496 112.768 11.4C112.768 15.288 114.144 17.208 116.672 17.208ZM116.672 15.64C115.296 15.64 114.512 14.312 114.512 11.4C114.512 8.472 115.28 7.176 116.672 7.176C118.032 7.176 118.816 8.488 118.816 11.4C118.816 14.312 118.032 15.64 116.672 15.64ZM126.032 17.208C128.528 17.208 129.92 15.272 129.92 11.4C129.92 7.496 128.528 5.608 126.032 5.608C123.504 5.608 122.128 7.496 122.128 11.4C122.128 15.288 123.504 17.208 126.032 17.208ZM126.032 15.64C124.656 15.64 123.872 14.312 123.872 11.4C123.872 8.472 124.64 7.176 126.032 7.176C127.392 7.176 128.176 8.488 128.176 11.4C128.176 14.312 127.392 15.64 126.032 15.64ZM135.391 17.208C137.887 17.208 139.279 15.272 139.279 11.4C139.279 7.496 137.887 5.608 135.391 5.608C132.863 5.608 131.487 7.496 131.487 11.4C131.487 15.288 132.863 17.208 135.391 17.208ZM135.391 15.64C134.015 15.64 133.231 14.312 133.231 11.4C133.231 8.472 133.999 7.176 135.391 7.176C136.751 7.176 137.535 8.488 137.535 11.4C137.535 14.312 136.751 15.64 135.391 15.64Z" fill="#2A2A2A"/>
<path d="M15 12H17C17 9.24 14.76 7 12 7V9C13.66 9 15 10.34 15 12ZM19 12H21C21 7.03 16.97 3 12 3V5C15.87 5 19 8.13 19 12ZM20 15.5C18.75 15.5 17.55 15.3 16.43 14.93C16.33 14.9 16.22 14.88 16.12 14.88C15.86 14.88 15.61 14.98 15.41 15.17L13.21 17.37C10.38 15.93 8.06 13.62 6.62 10.78L8.82 8.57C9.1 8.31 9.18 7.92 9.07 7.57C8.7 6.45 8.5 5.25 8.5 4C8.5 3.45 8.05 3 7.5 3H4C3.45 3 3 3.45 3 4C3 13.39 10.61 21 20 21C20.55 21 21 20.55 21 20V16.5C21 15.95 20.55 15.5 20 15.5ZM5.03 5H6.53C6.6 5.88 6.75 6.75 6.98 7.58L5.78 8.79C5.38 7.58 5.12 6.32 5.03 5ZM19 18.97C17.68 18.88 16.4 18.62 15.2 18.21L16.4 17.01C17.25 17.25 18.12 17.4 19 17.46V18.97Z" fill="#2A2A2A"/>
</svg>
